<svg id="Capa_1" enable-background="new 0 0 512 512" height="512" viewBox="0 0 512 512" width="512" xmlns="http://www.w3.org/2000/svg" xmlns:xlink="http://www.w3.org/1999/xlink"><linearGradient id="SVGID_1_" gradientUnits="userSpaceOnUse" x1="256" x2="256" y1="480.934" y2="45.934"><stop offset="0" stop-color="#fd3a84"/><stop offset="1" stop-color="#ffa68d"/></linearGradient><linearGradient id="SVGID_2_" gradientUnits="userSpaceOnUse" x1="256" x2="256" y1="420.934" y2="31.066"><stop offset="0" stop-color="#ffc2cc"/><stop offset="1" stop-color="#fff2f4"/></linearGradient><g><g><g><path d="m406 60.934c0-8.285-6.716-15-15-15h-30c-8.284 0-15 6.715-15 15v72.305l60 42.891zm38.701 168.076-180-158.394c-5.215-3.721-12.188-3.721-17.402 0l-180 158.394c-3.955 2.828-6.299 7.369-6.299 12.217v224.707c0 8.291 6.709 15 15 15h360c8.291 0 15-6.709 15-15v-224.707c0-4.848-2.344-9.389-6.299-12.217z" fill="url(#SVGID_1_)"/></g></g><g><g><path d="m499.536 231.647-226.104-195c-5.127-3.662-11.162-5.581-17.432-5.581s-12.305 1.919-17.402 5.566l-226.08 194.986c-13.51 9.646-16.539 28.207-6.855 41.733 9.615 13.595 28.269 16.402 41.689 6.87l208.648-182.388 208.731 182.402c12.462 9.537 31.904 7.022 41.719-6.899 9.55-13.491 6.474-32.182-6.914-41.689zm-254.936-15.313c-10.8 12.599-63.6 77.999-63.6 114.6 0 33.3 21.899 54.898 60 58.799v16.201c0 8.399 6.599 15 15 15s15-6.601 15-15v-16.201c38.101-3.9 60-25.499 60-58.799 0-36.601-52.8-102.001-63.6-114.6-5.7-6.9-17.1-6.9-22.8 0z" fill="url(#SVGID_2_)"/></g></g></g></svg>